<mxfile host="app.diagrams.net" modified="2023-09-26T09:39:22.766Z" agent="Mozilla/5.0 (Windows NT 10.0; Win64; x64) AppleWebKit/537.36 (KHTML, like Gecko) Chrome/116.0.0.0 Safari/537.36" etag="qUkkiXcEIvx3fvsy2SEz" version="21.8.2" type="device">
  <diagram name="Page-1" id="r981xmIWbCC4lmBAKhYo">
    <mxGraphModel dx="1235" dy="638" grid="1" gridSize="10" guides="1" tooltips="1" connect="1" arrows="1" fold="1" page="1" pageScale="1" pageWidth="827" pageHeight="1169" math="0" shadow="0">
      <root>
        <mxCell id="0" />
        <mxCell id="1" parent="0" />
        <mxCell id="NU7LInPwFZsKFCUNJM9n-10" value="" style="edgeStyle=orthogonalEdgeStyle;rounded=0;orthogonalLoop=1;jettySize=auto;html=1;" edge="1" parent="1" source="NU7LInPwFZsKFCUNJM9n-1" target="NU7LInPwFZsKFCUNJM9n-9">
          <mxGeometry relative="1" as="geometry" />
        </mxCell>
        <mxCell id="NU7LInPwFZsKFCUNJM9n-12" value="" style="edgeStyle=orthogonalEdgeStyle;rounded=0;orthogonalLoop=1;jettySize=auto;html=1;" edge="1" parent="1" source="NU7LInPwFZsKFCUNJM9n-1" target="NU7LInPwFZsKFCUNJM9n-11">
          <mxGeometry relative="1" as="geometry" />
        </mxCell>
        <mxCell id="NU7LInPwFZsKFCUNJM9n-13" value="Ccoktails" style="edgeLabel;html=1;align=center;verticalAlign=middle;resizable=0;points=[];" vertex="1" connectable="0" parent="NU7LInPwFZsKFCUNJM9n-12">
          <mxGeometry x="-0.1834" y="1" relative="1" as="geometry">
            <mxPoint y="5" as="offset" />
          </mxGeometry>
        </mxCell>
        <mxCell id="NU7LInPwFZsKFCUNJM9n-1" value="Landing Page&lt;br&gt;(Fetch Data)" style="rounded=0;whiteSpace=wrap;html=1;" vertex="1" parent="1">
          <mxGeometry x="334" y="385" width="120" height="70" as="geometry" />
        </mxCell>
        <mxCell id="NU7LInPwFZsKFCUNJM9n-9" value="User can interact with carousel" style="ellipse;whiteSpace=wrap;html=1;rounded=0;" vertex="1" parent="1">
          <mxGeometry x="554" y="380" width="146" height="80" as="geometry" />
        </mxCell>
        <mxCell id="NU7LInPwFZsKFCUNJM9n-19" value="" style="edgeStyle=orthogonalEdgeStyle;rounded=0;orthogonalLoop=1;jettySize=auto;html=1;" edge="1" parent="1" source="NU7LInPwFZsKFCUNJM9n-11" target="NU7LInPwFZsKFCUNJM9n-18">
          <mxGeometry relative="1" as="geometry" />
        </mxCell>
        <mxCell id="NU7LInPwFZsKFCUNJM9n-20" value="Click Filter&lt;br&gt;Buton" style="edgeLabel;html=1;align=center;verticalAlign=middle;resizable=0;points=[];" vertex="1" connectable="0" parent="NU7LInPwFZsKFCUNJM9n-19">
          <mxGeometry x="0.599" y="4" relative="1" as="geometry">
            <mxPoint x="-4" as="offset" />
          </mxGeometry>
        </mxCell>
        <mxCell id="NU7LInPwFZsKFCUNJM9n-22" value="" style="edgeStyle=orthogonalEdgeStyle;rounded=0;orthogonalLoop=1;jettySize=auto;html=1;" edge="1" parent="1" source="NU7LInPwFZsKFCUNJM9n-11" target="NU7LInPwFZsKFCUNJM9n-21">
          <mxGeometry relative="1" as="geometry" />
        </mxCell>
        <mxCell id="NU7LInPwFZsKFCUNJM9n-23" value="Click Cocktail&lt;br&gt;Card" style="edgeLabel;html=1;align=center;verticalAlign=middle;resizable=0;points=[];" vertex="1" connectable="0" parent="NU7LInPwFZsKFCUNJM9n-22">
          <mxGeometry x="0.5026" y="2" relative="1" as="geometry">
            <mxPoint as="offset" />
          </mxGeometry>
        </mxCell>
        <mxCell id="NU7LInPwFZsKFCUNJM9n-11" value="Cocktails Page&lt;br&gt;(Fetch Data)" style="whiteSpace=wrap;html=1;rounded=0;" vertex="1" parent="1">
          <mxGeometry x="334" y="525" width="120" height="60" as="geometry" />
        </mxCell>
        <mxCell id="NU7LInPwFZsKFCUNJM9n-18" value="Filter section expands showing category filters" style="whiteSpace=wrap;html=1;rounded=0;" vertex="1" parent="1">
          <mxGeometry x="170" y="645" width="120" height="60" as="geometry" />
        </mxCell>
        <mxCell id="NU7LInPwFZsKFCUNJM9n-21" value="Larger modal opens up revealing more details info" style="whiteSpace=wrap;html=1;rounded=0;" vertex="1" parent="1">
          <mxGeometry x="500" y="645" width="120" height="60" as="geometry" />
        </mxCell>
      </root>
    </mxGraphModel>
  </diagram>
</mxfile>
